<svg width="1028" height="79" viewBox="0 0 1028 79" fill="none" xmlns="http://www.w3.org/2000/svg">
<g clip-path="url(#clip0_0_410)">
<path d="M0.897827 82V0H44.8011L122.911 55.76H99.7474L175.703 0H219.606L220.145 82H171.124L170.585 32.4486H178.935L122.103 73.9172H98.4007L39.9528 32.4486H50.188V82H0.897827ZM352.151 82V0H405.481V82H352.151ZM537.693 82V0H623.884C641.122 0 655.936 1.21048 668.326 3.63143C680.895 6.05239 690.592 9.56667 697.415 14.1743C704.238 18.7038 707.65 24.0924 707.65 30.34C707.65 36.5095 704.238 41.8591 697.415 46.3886C690.592 50.84 680.895 54.2762 668.326 56.6972C655.936 59.04 641.122 60.2114 623.884 60.2114H567.321L591.024 50.4886V82H537.693ZM654.32 82L607.454 52.1286H664.286L711.421 82H654.32ZM591.024 52.9486L567.321 42.2886H620.652C631.785 42.2886 640.044 41.2343 645.431 39.1257C650.998 37.0172 653.781 34.0886 653.781 30.34C653.781 26.5133 650.998 23.5457 645.431 21.4371C640.044 19.3286 631.785 18.2743 620.652 18.2743H567.321L591.024 7.61429V52.9486ZM808.717 82L891.945 0H944.467L1027.96 82H972.479L907.298 11.3629H928.306L863.125 82H808.717ZM854.237 66.0686L867.973 48.9657H960.089L973.826 66.0686H854.237Z" fill="#EE1E82"/>
</g>
<defs>
<clipPath id="clip0_0_410">
<rect width="1028" height="82" fill="white"/>
</clipPath>
</defs>
</svg>
